<?xml version="1.0" encoding="utf-8"?>
<!-- Generator: Adobe Illustrator 28.2.0, SVG Export Plug-In . SVG Version: 6.00 Build 0)  -->
<svg version="1.1" id="Calque_1" xmlns="http://www.w3.org/2000/svg" xmlns:xlink="http://www.w3.org/1999/xlink" x="0px" y="0px"
	 width="24px" height="24px" viewBox="0 0 24 24" style="enable-background:new 0 0 24 24;" xml:space="preserve">
<path id="fleche" d="M1.8,13.9l8.8,9c0.4,0.4,0.9,0.6,1.5,0.6h0c0.5,0,1.1-0.2,1.5-0.6l8.8-9c0.8-0.7,0.8-2,0.1-2.8
	c0,0,0-0.1-0.1-0.1c-0.8-0.8-2.1-0.8-2.9,0l-5.2,5.4v-14c0-1.2-1-2.1-2.1-2c-1.1,0-2,0.9-2,2v14L4.7,11c-0.8-0.8-2.1-0.8-2.9,0
	C1,11.8,0.9,13,1.8,13.9C1.7,13.8,1.7,13.8,1.8,13.9L1.8,13.9z"/>
</svg>
